<?xml version="1.0" encoding="UTF-8"?>
<svg version="1.1" xmlns="http://www.w3.org/2000/svg" width="500" height="500">
<path d="M0 0 C165 0 330 0 500 0 C500 165 500 330 500 500 C335 500 170 500 0 500 C0 335 0 170 0 0 Z " fill="#2D92C8" transform="translate(0,0)"/>
<path d="M0 0 C5.10081207 4.30617103 9.94643419 8.9019498 14.78027344 13.50292969 C17.57517102 10.72916555 20.33548086 7.93022086 23.05761719 5.08496094 C39.34684208 -11.79781653 57.7320364 -23.81949873 80.78027344 -29.49707031 C81.52664063 -29.6865625 82.27300781 -29.87605469 83.04199219 -30.07128906 C101.58336626 -32.95432726 119.24993951 -28.91027638 134.78027344 -18.49707031 C152.45349477 -5.34254147 162.25336472 14.1128207 165.46777344 35.62792969 C167.03391585 55.04809562 162.63309804 75.65506822 150.78027344 91.50292969 C139.85427849 104.23095506 124.67541745 112.99928275 107.78027344 114.50292969 C77.73984513 116.34289665 51.97064053 104.55004895 27.78027344 87.50292969 C27.16261108 88.83130859 27.16261108 88.83130859 26.5324707 90.18652344 C-3.05730079 153.75726614 -3.05730079 153.75726614 -21.21972656 173.50292969 C-22.36637257 174.91893866 -23.51229876 176.33553109 -24.65722656 177.75292969 C-41.93797526 197.19887857 -70.96046173 206.74516403 -96.21972656 208.50292969 C-130.05952123 210.31604564 -157.05966431 203.64155607 -183.21972656 181.50292969 C-184.45529297 180.47039062 -184.45529297 180.47039062 -185.71582031 179.41699219 C-207.87747328 160.26323907 -222.87033304 130.96957474 -226.05639648 101.76098633 C-228.15996317 72.6789411 -223.83237008 47.20851543 -210.21972656 21.50292969 C-209.42673956 19.77436812 -208.6349594 18.04525209 -207.84472656 16.31542969 C-204.85460081 10.34494983 -200.59552945 5.50180107 -196.21972656 0.50292969 C-195.48367187 -0.35558594 -194.74761719 -1.21410156 -193.98925781 -2.09863281 C-177.87422989 -20.52395677 -157.77622999 -32.79120437 -134.21972656 -39.49707031 C-133.09695312 -39.81804687 -131.97417969 -40.13902344 -130.81738281 -40.46972656 C-83.34902459 -51.94970071 -35.88633596 -29.37251364 0 0 Z " fill="#510AAF" transform="translate(279.2197265625,166.4970703125)"/>
<path d="M0 0 C1.0725 0.57878906 2.145 1.15757812 3.25 1.75390625 C10.64779473 5.90553324 17.32409247 10.78185888 24 16 C25.19514475 16.92469602 26.39046317 17.84916762 27.5859375 18.7734375 C33.88911138 23.66761733 40.0940635 28.62596462 46 34 C45.09546874 39.37028776 42.9019396 43.53504649 40.375 48.3125 C39.65497803 49.67737549 39.65497803 49.67737549 38.92041016 51.06982422 C30.66251207 66.45586688 21.75689518 82.00183899 10 95 C9.37351562 95.76699219 8.74703125 96.53398437 8.1015625 97.32421875 C-4.46921257 112.43480347 -22.87532749 122.16659085 -42.38525391 124.25537109 C-62.79155081 125.85168634 -79.66228311 118.88606901 -95.25 105.8125 C-109.00089861 92.79945448 -116.25052798 75.52764257 -117.10253906 56.73876953 C-117.36274449 37.261134 -110.95710963 19.58394796 -97.4453125 5.31640625 C-69.26634041 -21.37709287 -31.52388799 -17.18489727 0 0 Z " fill="#3BA9D1" transform="translate(223,189)"/>
<path d="M0 0 C0.33 0.66 0.66 1.32 1 2 C-2.51066028 0.70171808 -5.73919894 -0.89995793 -9.01000977 -2.71582031 C-30.54316855 -14.65644875 -52.9184208 -20.45429756 -77.5625 -20.4375 C-78.30911896 -20.4375705 -79.05573792 -20.43764099 -79.82498169 -20.43771362 C-106.13481882 -20.34247344 -130.63561717 -12.20662042 -149.61230469 6.59765625 C-161.15357803 18.52669382 -168.54536589 32.40919542 -174 48 C-174.58080794 49.45934096 -175.16378003 50.91782464 -175.75 52.375 C-183.66466937 75.32754119 -175.15286212 104.05287866 -165.08105469 125.05151367 C-159.14660166 136.97167433 -150.63233506 146.86163084 -141 156 C-140.52304688 156.48339844 -140.04609375 156.96679688 -139.5546875 157.46484375 C-120.42461308 175.69417476 -91.81392941 185.69695495 -65.6875 186.4375 C-53.51625546 186.00435962 -41.92850878 183.46425439 -31 178 C-30.01515625 177.50757813 -29.0303125 177.01515625 -28.015625 176.5078125 C-19.8744819 172.09978424 -13.54839099 166.43532525 -7 160 C-6.23816406 159.25363281 -5.47632813 158.50726563 -4.69140625 157.73828125 C-3.11343509 156.17301006 -1.55387711 154.5891925 0 153 C-2.74826176 154.27853917 -4.93137191 155.68558678 -7.25 157.625 C-26.23509117 172.04942681 -48.81065552 175.46847161 -72 175 C-69.77750194 172.77750194 -68.46906686 172.34832137 -65.51171875 171.40625 C-64.12654053 170.95233887 -64.12654053 170.95233887 -62.71337891 170.48925781 C-61.71483887 170.16280273 -60.71629883 169.83634766 -59.6875 169.5 C-32.13704173 160.14258969 -6.33256522 146.08061926 11 122 C11.75539063 120.95972656 12.51078125 119.91945313 13.2890625 118.84765625 C19.34614947 110.24904914 24.23260773 101.14658242 28.97753906 91.76879883 C29.45803711 90.82029053 29.93853516 89.87178223 30.43359375 88.89453125 C31.06865845 87.62379761 31.06865845 87.62379761 31.71655273 86.32739258 C32.97612018 84.04330346 34.38408896 82.04352227 36 80 C42.43111952 87.14568836 45.88360948 95.53859035 47 105 C47.165 105.89460937 47.33 106.78921875 47.5 107.7109375 C49.57381 127.46397775 30.566702 153.24708136 18.91015625 168.05078125 C16.374853 171.13073684 13.70018572 174.06443625 11 177 C9.85335399 178.41600897 8.7074278 179.8326014 7.5625 181.25 C-9.71824869 200.69594889 -38.74073517 210.24223434 -64 212 C-97.83979467 213.81311595 -124.83993774 207.13862638 -151 185 C-152.23556641 183.96746094 -152.23556641 183.96746094 -153.49609375 182.9140625 C-175.65774672 163.76030939 -190.65060648 134.46664505 -193.83666992 105.25805664 C-195.94091415 76.16664435 -192.87745013 41.96290656 -173.32421875 18.54296875 C-163.78866076 8.10994647 -154.66960175 -1.45806667 -142 -8 C-141.01257813 -8.51949219 -140.02515625 -9.03898438 -139.0078125 -9.57421875 C-136.04028714 -10.98090285 -133.11636303 -11.97137162 -130 -13 C-128.57592568 -13.59010123 -127.15705353 -14.19283682 -125.7421875 -14.8046875 C-83.4251338 -32.961183 -37.62791016 -26.10548791 0 0 Z " fill="#AE36EA" transform="translate(247,163)"/>
<path d="M0 0 C2.52136175 0.9262355 2.52136175 0.9262355 5.3671875 0.6640625 C9.39452204 0.79964608 12.20053016 2.32760084 15.625 4.26953125 C16.60895752 4.81311279 16.60895752 4.81311279 17.61279297 5.36767578 C28.59973073 11.52899904 38.69621813 18.89118202 48.5 26.76953125 C49.02754883 27.19121582 49.55509766 27.61290039 50.09863281 28.04736328 C62.07655329 37.71394803 72.73271043 48.801877 83.5 59.76953125 C87.11655148 58.56401409 87.71577116 57.42372712 89.9375 54.39453125 C93.27544337 50.1011171 96.83045367 46.32667199 100.8125 42.64453125 C101.32804443 42.15936035 101.84358887 41.67418945 102.37475586 41.17431641 C106.12863924 37.76953125 106.12863924 37.76953125 109.5 37.76953125 C109.5 37.10953125 109.5 36.44953125 109.5 35.76953125 C123.18639133 25.01593806 140.66992559 22.50320787 157.5 23.76953125 C173.69416516 25.97266452 188.63863256 34.48126439 198.5625 47.46875 C204.42256925 56.32200117 208.97339792 65.06195553 209.5 75.76953125 C209.22542969 75.20878906 208.95085937 74.64804688 208.66796875 74.0703125 C201.83170111 60.60355117 193.79365463 52.05290863 179.375 47.08203125 C163.66662054 41.98251634 144.8583311 39.55090143 129.5 46.76953125 C116.14702502 53.71307824 107.52107244 64.40855489 99.5 76.76953125 C111.04847869 88.66921591 125.1874569 96.51898268 142 97.01953125 C151.06342649 96.76332131 159.08866543 95.05832875 165.75 88.58203125 C171.09831535 79.98652444 171.88862897 70.22302692 170.04296875 60.31640625 C169.4912077 58.25504017 169.4912077 58.25504017 168.5 55.76953125 C173.04160836 55.59142896 176.46125305 55.5993604 180.5 57.76953125 C185.01498249 64.87189626 185.42618164 73.6191328 184.5 81.76953125 C183.57175817 84.13232865 182.56902939 86.46700642 181.5 88.76953125 C181.19335229 90.91054002 180.92634762 93.05740263 180.6875 95.20703125 C179.53648334 103.36708435 176.09123797 107.77649446 169.9375 113.01953125 C160.29415211 119.69851034 149.81289412 120.70597259 138.5 118.76953125 C128.00307189 116.67014563 120.078173 111.86840303 111.5 105.76953125 C110.31664062 104.93615234 110.31664062 104.93615234 109.109375 104.0859375 C103.00451232 99.55251169 97.54835032 94.2632984 92.02734375 89.05078125 C89.58145595 86.75191591 87.0892141 84.52101588 84.5546875 82.3203125 C80.5027771 78.79797124 76.58842931 75.1449553 72.6875 71.45703125 C71.27380876 70.12981277 69.85974575 68.80299018 68.4453125 67.4765625 C66.162972 65.33449874 63.8866857 63.18696577 61.6171875 61.03125 C55.48734694 55.30444177 48.99366327 50.20862618 42.24829102 45.23388672 C41.54760498 44.71197754 40.84691895 44.19006836 40.125 43.65234375 C39.49851562 43.19230957 38.87203125 42.73227539 38.2265625 42.25830078 C36.30866278 40.60454619 34.97018606 38.82482269 33.5 36.76953125 C22.30240398 24.55397196 7.75681978 16.6731699 -6.96875 9.53125 C-10.5 7.76953125 -10.5 7.76953125 -12.9453125 6.2265625 C-30.83212804 -3.97493933 -53.37836977 -5.39144179 -73.5 -5.23046875 C-72.5 -7.23046875 -72.5 -7.23046875 -70.62890625 -7.86328125 C-48.17369655 -12.16975982 -21.01537853 -8.76735323 0 0 Z " fill="#DD33E8" transform="translate(227.5,137.23046875)"/>
<path d="M0 0 C6.94056252 0.96891044 12.59357497 3.49464581 18 8 C17.39997511 11.76754912 16.31224893 14.71657869 14.55859375 18.09765625 C14.06125732 19.05849121 13.5639209 20.01932617 13.05151367 21.00927734 C12.51888916 22.01684082 11.98626465 23.0244043 11.4375 24.0625 C10.62212769 25.61251709 10.62212769 25.61251709 9.7902832 27.19384766 C5.92518528 34.4549921 1.88996777 41.37280684 -3 48 C-3.81984375 49.13308594 -3.81984375 49.13308594 -4.65625 50.2890625 C-25.45113478 78.0482719 -54.35770262 92.96865595 -87 103 C-60.63091922 103.95823039 -36.63932547 96.921683 -16 80 C-22.6016003 94.39764599 -40.2763445 105.02085532 -54.2734375 111.0078125 C-78.49351953 119.82142401 -103.85649429 116.24970706 -127 106 C-128.18980469 105.47535156 -129.37960938 104.95070313 -130.60546875 104.41015625 C-157.88390265 91.54297045 -179.05789555 68.51640493 -189.30322266 40.06958008 C-191.63130938 33.16148903 -193.09840742 26.22619727 -194 19 C-191.14534931 21.85465069 -190.46359217 25.36663814 -189.25 29.125 C-187.04213356 35.66680125 -184.70647865 40.85269415 -180 46 C-179.2575 46.99 -178.515 47.98 -177.75 49 C-162.00264598 67.44690043 -136.0304348 75.01924775 -113 78.75 C-112.21077148 78.87785889 -111.42154297 79.00571777 -110.60839844 79.13745117 C-106.01717248 79.83121256 -101.64249981 80.12347074 -97 80 C-97 79.67 -97 79.34 -97 79 C-96.030625 78.97421875 -95.06125 78.9484375 -94.0625 78.921875 C-74.34650052 78.1817178 -57.2019654 73.09388035 -42 60 C-41.360625 59.50371094 -40.72125 59.00742187 -40.0625 58.49609375 C-21.94623677 43.92272877 -10.83932719 20.03929789 0 0 Z " fill="#6608E7" transform="translate(264,234)"/>
<path d="M0 0 C17.67322133 13.15452885 27.47309129 32.60989101 30.6875 54.125 C31.31276535 61.87829036 30.99491496 68.96098676 29.6875 76.625 C29.56987305 77.32939209 29.45224609 78.03378418 29.33105469 78.75952148 C28.41655216 83.76998961 26.89615442 88.27289233 25 93 C24.06576355 89.98968256 23.95550089 89.13349732 25 86 C25.39866473 79.57500791 25.27177908 74.05807756 23 68 C22.78397239 66.20924477 22.57682647 64.41741131 22.375 62.625 C20.03225658 47.81222071 10.57674126 33.81140017 -1.203125 24.8515625 C-16.11661157 14.97866776 -32.81481069 12.00208601 -50.328125 14.46875 C-59.62850681 16.55760581 -68.54217619 20.66743829 -77 25 C-77 25.66 -77 26.32 -77 27 C-78.658557 28.01339354 -80.32733959 29.01005812 -82 30 C-84.03420793 31.69471697 -85.99575356 33.39431091 -87.9375 35.1875 C-88.72918579 35.91235596 -88.72918579 35.91235596 -89.53686523 36.65185547 C-93.10673597 39.98844097 -96.12952395 43.43759108 -98.81640625 47.5390625 C-100 49 -100 49 -103 50 C-108.28 44.72 -113.56 39.44 -119 34 C-116.61137004 29.22274008 -113.60740179 25.89626264 -110 22 C-109.27683594 21.21109375 -108.55367188 20.4221875 -107.80859375 19.609375 C-93.24995879 4.35518746 -74.45648986 -5.96086467 -54 -11 C-53.25363281 -11.18949219 -52.50726563 -11.37898437 -51.73828125 -11.57421875 C-33.19690718 -14.45725694 -15.53033392 -10.41320607 0 0 Z " fill="#8F06E5" transform="translate(414,148)"/>
<path d="M0 0 C2.12343405 1.4974506 3.89181846 3.07915967 5.71484375 4.9296875 C6.35421875 5.56777344 6.99359375 6.20585937 7.65234375 6.86328125 C14.67307237 14.36668497 16.30517673 20.20510431 16.06640625 30.41796875 C15.2988259 38.08524353 12.35024743 44.6699774 6.71484375 49.9296875 C1.61949836 52.913967 -3.37767584 54.50772461 -9.28515625 54.9296875 C-9.93742187 54.98125 -10.5896875 55.0328125 -11.26171875 55.0859375 C-26.66763676 55.75819574 -40.96554802 48.98914741 -52.28515625 38.9296875 C-53.96368486 37.27496781 -55.63291879 35.61065952 -57.28515625 33.9296875 C-45.92089384 17.80730401 -23.47401154 -10.99466523 0 0 Z " fill="#1A71BC" transform="translate(383.28515625,180.0703125)"/>
<path d="M0 0 C10.05172362 8.6275012 19.26081091 21.38423005 20.8046875 34.8984375 C20.8665625 36.1565625 20.9284375 37.4146875 20.9921875 38.7109375 C20.71761719 38.15019531 20.44304687 37.58945313 20.16015625 37.01171875 C13.32388861 23.54495742 5.28584213 14.99431488 -9.1328125 10.0234375 C-24.84119196 4.92392259 -43.6494814 2.49230768 -59.0078125 9.7109375 C-72.36078748 16.65448449 -80.98674006 27.34996114 -89.0078125 39.7109375 C-92.60828486 38.19019004 -94.90788013 36.04849405 -97.6328125 33.2734375 C-98.40882813 32.49097656 -99.18484375 31.70851562 -99.984375 30.90234375 C-104.0078125 26.54491433 -104.0078125 26.54491433 -104.0078125 22.7109375 C-102.90792393 21.54230589 -101.79320902 20.3852379 -100.62109375 19.2890625 C-98.69030277 17.40034687 -96.95898904 15.38138485 -95.1953125 13.3359375 C-84.95878102 1.76420627 -84.95878102 1.76420627 -79.0078125 0.7109375 C-79.0078125 0.0509375 -79.0078125 -0.6090625 -79.0078125 -1.2890625 C-56.17435575 -19.22963566 -22.35303768 -17.01153257 0 0 Z " fill="#B635E9" transform="translate(416.0078125,174.2890625)"/>
<path d="M0 0 C-0.33 0.66 -0.66 1.32 -1 2 C-4.49556358 1.38313584 -7.62165828 0.43904327 -10.9375 -0.8125 C-16.90905131 -2.84505287 -22.92214556 -4.06571271 -29.125 -5.1875 C-30.04273193 -5.35419189 -30.96046387 -5.52088379 -31.90600586 -5.69262695 C-40.89881636 -7.26026972 -49.8059902 -8.19555425 -58.9375 -8.1875 C-59.7094873 -8.18814453 -60.48147461 -8.18878906 -61.27685547 -8.18945312 C-67.33656586 -8.13373165 -73.10440495 -7.45441992 -79 -6 C-78.25878906 -6.02320313 -77.51757812 -6.04640625 -76.75390625 -6.0703125 C-57.98375642 -6.39195521 -37.85712936 -3.75005222 -21 5 C-19.76794466 5.60753671 -18.53475231 6.21277007 -17.30078125 6.81640625 C-13.18112581 8.84005375 -9.08719887 10.91171161 -5 13 C-3.47052734 13.77730469 -3.47052734 13.77730469 -1.91015625 14.5703125 C9.07097699 20.33658906 18.52014391 28.0787276 28 36 C27.01 36.33 26.02 36.66 25 37 C22.4765625 35.5234375 22.4765625 35.5234375 19.625 33.375 C18.22121094 32.33472656 18.22121094 32.33472656 16.7890625 31.2734375 C14 29 14 29 11.5859375 26.49609375 C8.65243134 23.66450699 5.53767586 21.65544913 2 19.6875 C1.31502441 19.30577637 0.63004883 18.92405273 -0.07568359 18.53076172 C-13.20668964 11.46201529 -27.30388547 6.47415599 -42 4 C-42.89460938 3.79761719 -43.78921875 3.59523437 -44.7109375 3.38671875 C-68.9770756 -1.72377165 -92.55518433 3.3870356 -114.83496094 13.06884766 C-117.73985515 14.31820112 -120.68427585 15.4630003 -123.625 16.625 C-138.46360254 22.91890164 -148.87461093 33.70800776 -160 45 C-160.99892531 46.00107354 -161.99834848 47.00165426 -163 48 C-154.9722327 25.08134827 -128.16412829 6.60150078 -107.66796875 -3.3671875 C-101.62174969 -6.13089629 -95.38819597 -8.18146246 -89 -10 C-87.87722656 -10.32097656 -86.75445312 -10.64195313 -85.59765625 -10.97265625 C-57.12586068 -17.85841108 -26.35955524 -11.46581551 0 0 Z " fill="#400FE8" transform="translate(234,137)"/>
<path d="M0 0 C4.85834353 0.70879516 8.57395923 1.96402124 13 4 C11.86665558 18.35569596 -1.07221928 32.47564536 -10 43 C-10.80953125 43.95648438 -11.6190625 44.91296875 -12.453125 45.8984375 C-26.85667779 62.47403962 -46.94064596 76.33803217 -69 80 C-72.34016462 80.21359749 -75.65493585 80.19179852 -79 80.125 C-80.30517578 80.11146484 -80.30517578 80.11146484 -81.63671875 80.09765625 C-83.7579342 80.07434619 -85.87900562 80.03848579 -88 80 C-88 79.67 -88 79.34 -88 79 C-86.38544922 78.76216797 -86.38544922 78.76216797 -84.73828125 78.51953125 C-60.0274953 74.66975514 -40.9839893 63.23152649 -25.921875 43.125 C-16.09992028 29.53773931 -7.96488982 14.72515747 0 0 Z " fill="#080FEA" transform="translate(264,234)"/>
<path d="M0 0 C2.54499316 1.88488556 4.72960069 3.78497628 7 6 C6.34 6.33 5.68 6.66 5 7 C2.6847815 5.96408813 0.48266143 4.87994417 -1.75 3.6875 C-7.85689639 0.45938422 -13.59513685 -1.88774358 -20.4375 -3 C-23.52741615 -3.50374179 -26.37990058 -4.11682492 -29.37890625 -5.0390625 C-44.87658772 -9.15171583 -60.96100924 -4.24183185 -74.70703125 3.01171875 C-79.93953947 6.17108611 -84.48735565 9.89423342 -89 14 C-89.62132812 14.54011719 -90.24265625 15.08023438 -90.8828125 15.63671875 C-95.42264253 19.82814322 -98.86251114 24.79138334 -102.36157227 29.8503418 C-105.0586402 33.74913299 -107.91751876 37.39645876 -111 41 C-112.17825358 40.09827532 -113.34231577 39.17798498 -114.5 38.25 C-115.47453125 37.48429687 -115.47453125 37.48429687 -116.46875 36.703125 C-118 35 -118 35 -118 31 C-115.34761574 27.36943147 -112.11622891 24.23571621 -109 21 C-108.30390625 20.24074219 -107.6078125 19.48148438 -106.890625 18.69921875 C-92.81695745 3.80546907 -73.80707827 -6.12083703 -54 -11 C-53.25363281 -11.18949219 -52.50726563 -11.37898437 -51.73828125 -11.57421875 C-32.7628614 -14.52474766 -16.11446 -9.91951429 0 0 Z " fill="#0E10E9" transform="translate(414,148)"/>
<path d="M0 0 C0.33 0.66 0.66 1.32 1 2 C-2.51066028 0.70171808 -5.73919894 -0.89995793 -9.01000977 -2.71582031 C-30.54316855 -14.65644875 -52.9184208 -20.45429756 -77.5625 -20.4375 C-78.30911896 -20.4375705 -79.05573792 -20.43764099 -79.82498169 -20.43771362 C-106.13481882 -20.34247344 -130.63561717 -12.20662042 -149.61230469 6.59765625 C-162.68693607 20.11156969 -171.34771459 36.81379341 -176 55 C-177.63741826 50.96785753 -176.28187113 47.55791768 -175 43.625 C-174.7728833 42.91964111 -174.5457666 42.21428223 -174.31176758 41.48754883 C-166.24094239 17.38848063 -149.97515811 -1.44976021 -128 -14 C-86.38571775 -34.53566642 -37.1823619 -25.79637548 0 0 Z " fill="#967CED" transform="translate(247,163)"/>
<path d="M0 0 C1.3546962 1.31162257 2.69182731 2.6419721 4 4 C3.28457031 3.85377197 2.56914062 3.70754395 1.83203125 3.55688477 C-1.44468798 2.88898299 -4.72232766 2.22570795 -8 1.5625 C-9.12535156 1.33240234 -10.25070313 1.10230469 -11.41015625 0.86523438 C-33.53709025 -3.59897161 -56.46935133 -3.734084 -76 9 C-80.68002862 12.66203699 -84.81363824 16.79499075 -89 21 C-84.82956435 9.53130195 -74.68591129 0.19816266 -64.0625 -5.375 C-42.67357667 -15.14658934 -19.78917621 -12.19441128 0 0 Z " fill="#5A0EA9" transform="translate(211,194)"/>
<path d="M0 0 C0.495 0.99 0.495 0.99 1 2 C-8.67283903 16.75107952 -20.44570144 27.02234059 -38 31 C-38.59941406 31.18046875 -39.19882812 31.3609375 -39.81640625 31.546875 C-57.11842699 35.13727644 -74.31846677 28.73048201 -89 20 C-91.45703125 17.75 -91.45703125 17.75 -93 16 C-91.2058423 16.4232923 -89.41170747 16.84668177 -87.61767578 17.27050781 C-86.06332502 17.63596626 -84.50829222 17.99853441 -82.95263672 18.35839844 C-79.49592536 19.16030438 -76.06390899 19.98221857 -72.64453125 20.93359375 C-53.49438453 26.11131777 -32.54778634 23.37543613 -15.140625 14.00390625 C-9.24546796 10.24244411 -3.89559394 5.84339091 0 0 Z " fill="#4C0F99" transform="translate(431,264)"/>
<path d="M0 0 C17.04255319 0.29291888 33.06143774 4.7413342 45.671875 16.578125 C54.30906252 25.56311873 59.19957021 36.83911108 59.0625 49.3125 C59.05347656 50.38113281 59.04445313 51.44976562 59.03515625 52.55078125 C59.02355469 53.35902344 59.01195312 54.16726562 59 55 C57.17813225 51.69335017 56.19810902 48.37959153 55.1875 44.75 C53.48748736 39.16245844 51.60915335 34.59531638 48 30 C47.53207031 29.39671875 47.06414062 28.7934375 46.58203125 28.171875 C40.33788822 21.07976192 30.89663046 17.61016844 22 15 C20.741875 15 19.48375 15 18.1875 15 C13.87261287 14.57843057 12.10970368 12.36107162 9.3125 9.1875 C8.60738281 8.31480469 7.90226562 7.44210938 7.17578125 6.54296875 C4.98371015 3.98096106 2.68971336 2.02081792 0 0 Z " fill="#870988" transform="translate(381,179)"/>
<path d="M0 0 C7.55352493 5.57019716 14.85732003 11.43081436 22.125 17.3671875 C22.84623047 17.95556396 23.56746094 18.54394043 24.31054688 19.15014648 C25.75602305 20.33015664 27.20006475 21.51192642 28.64257812 22.69555664 C29.6393457 23.50947876 29.6393457 23.50947876 30.65625 24.33984375 C31.25244141 24.82831787 31.84863281 25.31679199 32.46289062 25.82006836 C34.00675667 27.08249573 34.00675667 27.08249573 36 28 C35.50617379 34.24112277 32.65818138 39.35130576 29.9375 44.875 C29.46505859 45.84953125 28.99261719 46.8240625 28.50585938 47.828125 C27.34404403 50.22216874 26.1752793 52.61254494 25 55 C24.67 55 24.34 55 24 55 C23.90203125 53.90042969 23.8040625 52.80085938 23.703125 51.66796875 C22.52831163 39.61247111 20.9028183 28.00151916 12 19 C6.78273229 14.74100595 1.37104661 12.0850698 -5 10 C-3.83269511 6.04912191 -2.55162546 3.21574716 0 0 Z " fill="#4A1E78" transform="translate(270,224)"/>
<path d="M0 0 C3.3125 -0.3125 3.3125 -0.3125 7 0 C12.46102297 6.21426752 12.44123189 14.77813707 12.31640625 22.6171875 C11.65114477 29.72973621 8.4275137 34.43595439 3 39 C-6.90850985 45.85824309 -16.98220997 46.29699545 -28.71875 44.3984375 C-36.46226038 42.53773962 -36.46226038 42.53773962 -39 40 C-37.865625 40.165 -36.73125 40.33 -35.5625 40.5 C-24.77313943 41.80837589 -14.14770106 41.40339074 -5 35 C1.01281214 29.15421041 2.1834144 21.97296972 2.3125 13.875 C2.20978536 8.87982503 1.77646868 4.66323028 0 0 Z " fill="#E105DA" transform="translate(396,193)"/>
<path d="M0 0 C3.16115776 1.36983503 3.9927092 1.9890638 6 5 C-24.30899027 60.17298667 -24.30899027 60.17298667 -48.4375 72.5625 C-49.13641357 72.9219873 -49.83532715 73.28147461 -50.55541992 73.65185547 C-55.62554793 76.12481736 -55.62554793 76.12481736 -59 75 C-58.01773438 74.54173828 -58.01773438 74.54173828 -57.015625 74.07421875 C-29.3988128 60.22680585 -15.43352852 29.61446223 -2.20825195 3.29052734 C-1 1 -1 1 0 0 Z " fill="#CE08DF" transform="translate(257,221)"/>
<path d="M0 0 C0.33 0 0.66 0 1 0 C1.4140751 7.8674269 -0.16781719 12.96047023 -5.0625 19.125 C-10.58588841 25.13780257 -18.83580214 29.22640426 -27 30 C-42.86677099 30.15729141 -55.4808209 25.37129302 -68 16 C-68.33 15.34 -68.66 14.68 -69 14 C-65.45052761 14.68645457 -62.66863952 16.16291252 -59.5 17.875 C-48.65391565 23.37740377 -38.43355674 25.63421548 -26.625 22.4375 C-20.3971418 20.39784015 -14.73461409 17.61321373 -10 13 C-9.65562877 11.66947479 -9.32231317 10.33604008 -9 9 C-7.1875 7.1484375 -7.1875 7.1484375 -5 5.375 C-2.04427685 3.05444701 -2.04427685 3.05444701 0 0 Z " fill="#FB04E1" transform="translate(407,227)"/>
<path d="M0 0 C0.495 0.99 0.495 0.99 1 2 C-9.90650378 27.3312346 -31.46281827 47.56057566 -56.73046875 57.8125 C-65.83944085 61.12089608 -74.3564448 61.25012103 -84 61 C-84 60.67 -84 60.34 -84 60 C-83.175 59.92523438 -82.35 59.85046875 -81.5 59.7734375 C-71.60117197 58.64656199 -63.11909094 55.89377113 -54 52 C-53.071875 51.608125 -52.14375 51.21625 -51.1875 50.8125 C-28.66538938 40.41767971 -13.35684619 20.03526929 0 0 Z " fill="#9F75F2" transform="translate(270,254)"/>
<path d="M0 0 C1.859375 0.203125 1.859375 0.203125 4 1 C8.46976375 8.22887718 8.85564242 16.76169927 8 25 C5.87885442 33.34317261 -1.20455652 40.73526307 -8.5 45.125 C-18.700973 49.57604567 -31.3040389 47.65203975 -41.55078125 44.35546875 C-47.582705 41.98505251 -53.30442118 39.08149857 -59 36 C-54.85320354 34.61773451 -53.28940667 35.99174657 -49.375 37.8125 C-38.18178583 42.78314734 -24.82766809 45.98188545 -12.78515625 41.9140625 C-10.42920118 40.71705743 -8.23061758 39.41149038 -6 38 C-5.01 37.67 -4.02 37.34 -3 37 C-1.89471687 35.1335858 -1.89471687 35.1335858 -1 33 C0.051875 31.329375 0.051875 31.329375 1.125 29.625 C5.39552126 21.0359741 3.38912602 10.69469194 0.65625 1.9140625 C0.4396875 1.28242188 0.223125 0.65078125 0 0 Z " fill="#F972ED" transform="translate(404,194)"/>
<path d="M0 0 C-3.54484471 2.05227852 -7.07427191 2.7226595 -11.0625 3.5625 C-34.66935663 9.12333575 -54.71697621 23.43282311 -67.5703125 43.9921875 C-73.5444163 54.03263729 -78.10055343 64.66579976 -81 76 C-82.63741826 71.96785753 -81.28187113 68.55791768 -80 64.625 C-79.65932495 63.56696167 -79.65932495 63.56696167 -79.31176758 62.48754883 C-72.28441704 41.50424218 -59.12699973 24.54178936 -41 12 C-40.30003906 11.50628906 -39.60007813 11.01257813 -38.87890625 10.50390625 C-31.03952944 5.27222235 -22.42204531 1.63878273 -13 1 C-11.80375 0.814375 -10.6075 0.62875 -9.375 0.4375 C-6.20302796 0.02631844 -3.19355726 -0.07789164 0 0 Z " fill="#8080DD" transform="translate(152,142)"/>
<path d="M0 0 C-0.62342285 0.28085449 -1.2468457 0.56170898 -1.88916016 0.85107422 C-17.79301237 8.07476976 -31.60558129 15.50079724 -44.328125 27.6015625 C-46 29 -46 29 -48 29 C-48.2475 29.598125 -48.495 30.19625 -48.75 30.8125 C-50.16370012 33.28647521 -51.65055383 34.43370255 -54 36 C-55.65 34.35 -57.3 32.7 -59 31 C-47.18038064 19.4863002 -17.3787268 -4.92249539 0 0 Z " fill="#550FDC" transform="translate(346,137)"/>
<path d="M0 0 C0.495 0.99 0.495 0.99 1 2 C-4.53952859 10.4477811 -10.3156294 19.12625176 -20 23 C-20 22.34 -20 21.68 -20 21 C-20.89203125 21.34933594 -21.7840625 21.69867188 -22.703125 22.05859375 C-23.87359375 22.51363281 -25.0440625 22.96867187 -26.25 23.4375 C-27.41015625 23.88996094 -28.5703125 24.34242188 -29.765625 24.80859375 C-35.4971574 26.91984663 -40.37084645 27.19256305 -46.4375 27.1875 C-47.32824219 27.18741943 -48.21898437 27.18733887 -49.13671875 27.18725586 C-57.63478647 27.11434072 -65.75966585 26.15725729 -74 24 C-74 23.34 -74 22.68 -74 22 C-72.741875 21.979375 -71.48375 21.95875 -70.1875 21.9375 C-69.47980469 21.92589844 -68.77210938 21.91429687 -68.04296875 21.90234375 C-66 22 -66 22 -63 23 C-42.43945951 24.2837185 -22.22288358 21.28331915 -6.25 7.25 C-3.76113056 4.89299119 -1.90836007 2.8625401 0 0 Z " fill="#740AE1" transform="translate(431,264)"/>
<path d="M0 0 C1.32 1.32 2.64 2.64 4 4 C-4.25 2.35 -12.5 0.7 -21 -1 C-21 -1.33 -21 -1.66 -21 -2 C-19.35 -2 -17.7 -2 -16 -2 C-16 -2.66 -16 -3.32 -16 -4 C-30.8305273 -6.48283865 -46.26842401 -7.7077225 -61 -4 C-60.67 -4.99 -60.34 -5.98 -60 -7 C-41.04372345 -16.44654448 -17.14983492 -10.56800638 0 0 Z " fill="#9310E0" transform="translate(211,194)"/>
<path d="M0 0 C0.67321289 -0.0093457 1.34642578 -0.01869141 2.04003906 -0.02832031 C6.72587503 0.00149656 10.53349217 0.80681408 14.9375 2.25 C14.9375 2.58 14.9375 2.91 14.9375 3.25 C14.0853894 3.27187378 14.0853894 3.27187378 13.21606445 3.29418945 C-16.95418955 4.15724231 -36.29942561 13.58837266 -58.0625 34.25 C-58.0625 28.09671907 -51.02740791 23.22195059 -46.8828125 19.0625 C-37.91393643 10.65212537 -27.81038975 5.60895124 -16.0625 2.25 C-14.825 1.8375 -13.5875 1.425 -12.3125 1 C-8.25765032 0.04390913 -4.14656595 0.0396349 0 0 Z " fill="#7F7CF4" transform="translate(373.0625,140.75)"/>
<path d="M0 0 C0.495 1.485 0.495 1.485 1 3 C0.10717773 4.69824219 0.10717773 4.69824219 -1.31640625 6.546875 C-1.83396484 7.2275 -2.35152344 7.908125 -2.88476562 8.609375 C-3.43841797 9.31578125 -3.99207031 10.0221875 -4.5625 10.75 C-5.35237305 11.78640625 -5.35237305 11.78640625 -6.15820312 12.84375 C-7.74893807 14.91540481 -9.36645737 16.96196816 -11 19 C-11.50297607 19.63147949 -12.00595215 20.26295898 -12.52416992 20.91357422 C-19.57370235 29.48286998 -30.33299203 36.76644706 -41 40 C-41.99 39.67 -42.98 39.34 -44 39 C-42.64843571 38.22461277 -41.29357915 37.45496383 -39.9375 36.6875 C-39.18339844 36.25824219 -38.42929688 35.82898438 -37.65234375 35.38671875 C-35 34 -35 34 -31.54296875 32.62109375 C-19.69612643 27.20054296 -11.7465546 14.97511279 -4.34350586 4.7265625 C-3.00519951 3.00668197 -1.57279341 1.50554055 0 0 Z " fill="#351584" transform="translate(242,257)"/>
<path d="M0 0 C0.66 0.66 1.32 1.32 2 2 C0.93446504 3.84373465 -0.15303177 5.67479236 -1.25 7.5 C-1.85328125 8.5209375 -2.4565625 9.541875 -3.078125 10.59375 C-3.71234375 11.3878125 -4.3465625 12.181875 -5 13 C-6.32 13 -7.64 13 -9 13 C-9.24492187 13.71671875 -9.48984375 14.4334375 -9.7421875 15.171875 C-12.10271693 20.4794008 -16.25364639 24.61417218 -20 29 C-20.66644531 29.80308594 -21.33289063 30.60617187 -22.01953125 31.43359375 C-26.79866492 37.04980583 -32.11322997 41.57285942 -38 46 C-38.66 45.67 -39.32 45.34 -40 45 C-39.23816406 44.33355469 -38.47632813 43.66710937 -37.69140625 42.98046875 C-29.25573076 35.49397821 -21.88000888 27.641952 -15.8125 18.0625 C-13.92835917 15.11137333 -12.96029705 13.97407154 -9.9375 12 C-6.26749282 9.50127171 -5.00412278 6.84839673 -3.078125 2.92578125 C-2 1 -2 1 0 0 Z " fill="#7F0CDC" transform="translate(249,245)"/>
<path d="M0 0 C17.89371968 0.0860275 36.63562822 11.11196733 51 21 C51.495 21.99 51.495 21.99 52 23 C48.48951175 21.7017817 45.26111131 20.10023723 41.99047852 18.28442383 C30.51578631 11.92160864 18.62407879 7.24540041 6.01391602 3.64770508 C4.32567769 3.1529607 2.65987862 2.58285814 1 2 C0.67 1.34 0.34 0.68 0 0 Z " fill="#B262EB" transform="translate(196,142)"/>
<path d="M0 0 C0.33 0.66 0.66 1.32 1 2 C-4.53952859 10.4477811 -10.3156294 19.12625176 -20 23 C-20 22.34 -20 21.68 -20 21 C-20.598125 21.33 -21.19625 21.66 -21.8125 22 C-24 23 -24 23 -27 23 C-26.90234375 21.19921875 -26.90234375 21.19921875 -26 19 C-23.19140625 17.39453125 -23.19140625 17.39453125 -19.5625 15.8125 C-11.66413709 12.17301858 -4.88952524 7.33428786 0 0 Z " fill="#B807DE" transform="translate(431,264)"/>
<path d="M0 0 C7.58272727 5.02636364 7.58272727 5.02636364 9.125 8.625 C9 11 9 11 7 15 C3.04 13.35 -0.92 11.7 -5 10 C-2.75 3.25 -2.75 3.25 0 0 Z " fill="#0D0C79" transform="translate(270,224)"/>
<path d="M0 0 C0.99 0 1.98 0 3 0 C1.56081786 3.21827163 -0.24614869 5.54358386 -2.5625 8.1875 C-11.82981494 19.66212086 -17.2164792 32.87358816 -21 47 C-22.63741826 42.96785753 -21.28187113 39.55791768 -20 35.625 C-19.65932495 34.56696167 -19.65932495 34.56696167 -19.31176758 33.48754883 C-15.22017678 21.27026951 -9.19463764 9.19463764 0 0 Z " fill="#807BE1" transform="translate(92,171)"/>
<path d="M0 0 C0.66 0.33 1.32 0.66 2 1 C2 1.66 2 2.32 2 3 C1.29875 3.35191406 0.5975 3.70382813 -0.125 4.06640625 C-11.12571476 9.48891577 -11.12571476 9.48891577 -18 19 C-19.63604196 20.37073786 -21.30678061 21.70055256 -23 23 C-24.35147138 24.31494512 -25.69112542 25.64264858 -27 27 C-23.09918936 16.27277074 -13.51400215 6.66370168 -3.5 1.375 C-1.7675 0.694375 -1.7675 0.694375 0 0 Z " fill="#3013E2" transform="translate(149,188)"/>
<path d="M0 0 C0.66 0.33 1.32 0.66 2 1 C-0.47806326 6.11100548 -4.48103361 9.67074026 -9 13 C-9.66 13 -10.32 13 -11 13 C-11.2475 13.598125 -11.495 14.19625 -11.75 14.8125 C-13.16370012 17.28647521 -14.65055383 18.43370255 -17 20 C-17.66 19.01 -18.32 18.02 -19 17 C-13.04581129 10.78693352 -6.83086681 5.23367039 0 0 Z " fill="#1D1070" transform="translate(309,153)"/>
<path d="M0 0 C-0.89203125 0.45890625 -1.7840625 0.9178125 -2.703125 1.390625 C-3.88562062 2.01002747 -5.06790098 2.62984099 -6.25 3.25 C-7.41015625 3.85328125 -8.5703125 4.4565625 -9.765625 5.078125 C-12.72088067 6.83414649 -14.71925711 8.46584123 -17 11 C-19.79210005 13.86756222 -22.64268085 16.64410918 -25.625 19.3125 C-26.19476563 19.82425781 -26.76453125 20.33601563 -27.3515625 20.86328125 C-29 22 -29 22 -32 22 C-27.71933432 11.86757326 -15.17420762 5.34466192 -6 0 C-3 -1 -3 -1 0 0 Z " fill="#A28BEA" transform="translate(125,149)"/>
<path d="M0 0 C-2.57237888 6.604366 -10.07479145 9.61361084 -16.1484375 12.4921875 C-30.54734163 18.62169581 -30.54734163 18.62169581 -36 17 C-34.96101562 16.62488281 -33.92203125 16.24976563 -32.8515625 15.86328125 C-22.33094832 12.02290335 -12.37540026 8.28080718 -3.59375 1.13671875 C-2 0 -2 0 0 0 Z " fill="#8081F4" transform="translate(236,295)"/>
<path d="M0 0 C0.6909375 -0.01224609 1.381875 -0.02449219 2.09375 -0.03710938 C6.84508765 -0.050506 10.73802571 0.69335144 15.25 2.1875 C15.25 2.5175 15.25 2.8475 15.25 3.1875 C5.68 3.5175 -3.89 3.8475 -13.75 4.1875 C-9.38278181 -0.17971819 -5.85759812 0.00534452 0 0 Z " fill="#7162F1" transform="translate(372.75,140.8125)"/>
<path d="M0 0 C2.83703891 1.1283061 5.66535013 2.27418684 8.48828125 3.4375 C18.74485604 7.64706924 27.87852978 10.22313259 39 11 C39 11.33 39 11.66 39 12 C24.88983758 12.7025807 12.6516197 10.71381815 1 2 C0.67 1.34 0.34 0.68 0 0 Z " fill="#FF10E3" transform="translate(345,230)"/>
<path d="M0 0 C2.77270429 0.61748874 5.54295598 1.24362456 8.3125 1.875 C9.49102539 2.13603516 9.49102539 2.13603516 10.69335938 2.40234375 C11.45068359 2.57636719 12.20800781 2.75039063 12.98828125 2.9296875 C13.68477783 3.08679199 14.38127441 3.24389648 15.09887695 3.40576172 C17 4 17 4 20 6 C19.01 6.33 18.02 6.66 17 7 C17 7.99 17 8.98 17 10 C11.10873008 8.44966581 5.97939999 5.45088361 1 2 C0.67 1.34 0.34 0.68 0 0 Z " fill="#16228A" transform="translate(338,280)"/>
<path d="M0 0 C4.87635793 0.24158104 8.81925777 2.92261941 12.9375 5.3125 C13.62779297 5.70373047 14.31808594 6.09496094 15.02929688 6.49804688 C19.13530096 8.84489092 23.09643424 11.33042529 27 14 C26.01 14.495 26.01 14.495 25 15 C22.64192264 13.86016209 20.39809097 12.666676 18.125 11.375 C11.5701103 7.75149448 4.99156157 4.70809089 -2 2 C-1.34 1.34 -0.68 0.68 0 0 Z " fill="#AE16E3" transform="translate(233,138)"/>
<path d="M0 0 C0.33 0.66 0.66 1.32 1 2 C-2.66974863 10.52328714 -8.21191804 19.60156625 -15 26 C-15.48810079 23.31282148 -15.31329931 21.53310612 -13.92333984 19.16796875 C-12.39383764 17.0685911 -10.8098863 15.0284507 -9.1875 13 C-8.09555553 11.60580942 -7.00565653 10.210014 -5.91796875 8.8125 C-5.4079834 8.15894531 -4.89799805 7.50539063 -4.37255859 6.83203125 C-2.73733196 4.64940217 -1.3259839 2.38211844 0 0 Z " fill="#9576F2" transform="translate(270,254)"/>
<path d="M0 0 C2.31 1.65 4.62 3.3 7 5 C6.125 9.75 6.125 9.75 5 12 C0.125 10.125 0.125 10.125 -1 9 C-0.91062197 7.47480724 -0.75462854 5.95318071 -0.5625 4.4375 C-0.46066406 3.61121094 -0.35882813 2.78492188 -0.25390625 1.93359375 C-0.17011719 1.29550781 -0.08632813 0.65742188 0 0 Z " fill="#590874" transform="translate(279,231)"/>
<path d="M0 0 C0.33 0.66 0.66 1.32 1 2 C-6.95524017 13.80676856 -6.95524017 13.80676856 -11 17 C-13.8125 17.3125 -13.8125 17.3125 -16 17 C-14.61647725 13.70354528 -13.19937978 12.17090075 -10.25 10.1875 C-6.15570986 7.26620904 -3.08494505 3.94966449 0 0 Z " fill="#C609D6" transform="translate(431,264)"/>
<path d="M0 0 C-0.66 0.99 -1.32 1.98 -2 3 C-2.97030151 2.90150757 -2.97030151 2.90150757 -3.96020508 2.80102539 C-11.19896509 2.1003757 -18.42113586 1.70893185 -25.6875 1.4375 C-27.33008789 1.37272461 -27.33008789 1.37272461 -29.00585938 1.30664062 C-31.67048597 1.20191731 -34.33518311 1.09974221 -37 1 C-37 0.67 -37 0.34 -37 0 C-32.89633488 -0.19972589 -28.79207368 -0.38249433 -24.6875 -0.5625 C-23.53958984 -0.61857422 -22.39167969 -0.67464844 -21.20898438 -0.73242188 C-14.03903491 -1.03709395 -7.12583858 -0.86666826 0 0 Z " fill="#8669DF" transform="translate(199,141)"/>
<path d="M0 0 C8.04556393 -1.06262165 12.60201293 2.38968579 19 7 C15.64537826 8.67731087 12.3430109 6.82106424 8.9375 5.75 C8.19177734 5.53214844 7.44605469 5.31429687 6.67773438 5.08984375 C4.75179963 4.49159699 2.87046265 3.75398495 1 3 C0.67 2.01 0.34 1.02 0 0 Z " fill="#D210DD" transform="translate(196,190)"/>
<path d="M0 0 C0.33 0 0.66 0 1 0 C1.33 2.97 1.66 5.94 2 9 C1.34 9 0.68 9 0 9 C0.31160461 11.20845985 0.62432346 13.41676251 0.9375 15.625 C1.11152344 16.85476563 1.28554687 18.08453125 1.46484375 19.3515625 C1.93774301 22.57556184 2.45151002 25.78812176 3 29 C0.52813545 26.03653214 -0.66248361 23.45958311 -1.6875 19.75 C-1.93886719 18.85796875 -2.19023438 17.9659375 -2.44921875 17.046875 C-2.63097656 16.37140625 -2.81273438 15.6959375 -3 15 C-2.67 15 -2.34 15 -2 15 C-1.93941406 14.08476562 -1.87882812 13.16953125 -1.81640625 12.2265625 C-1.73261719 11.03804688 -1.64882812 9.84953125 -1.5625 8.625 C-1.48128906 7.44164062 -1.40007812 6.25828125 -1.31640625 5.0390625 C-1 2 -1 2 0 0 Z " fill="#0A0D93" transform="translate(94,247)"/>
<path d="M0 0 C-6.6 2.97 -13.2 5.94 -20 9 C-20 8.34 -20 7.68 -20 7 C-20.66 6.67 -21.32 6.34 -22 6 C-19.09053687 4.79428057 -16.17150084 3.61371775 -13.25 2.4375 C-12.425 2.09525391 -11.6 1.75300781 -10.75 1.40039062 C-9.95078125 1.08134766 -9.1515625 0.76230469 -8.328125 0.43359375 C-7.22839355 -0.01415405 -7.22839355 -0.01415405 -6.10644531 -0.47094727 C-4 -1 -4 -1 0 0 Z " fill="#881BC2" transform="translate(346,137)"/>
<path d="M0 0 C0.66 0.33 1.32 0.66 2 1 C-0.82522609 5.67248931 -3.67760044 8.65996398 -8 12 C-8.66 11.01 -9.32 10.02 -10 9 C-6.7 6.03 -3.4 3.06 0 0 Z " fill="#161BE5" transform="translate(297,159)"/>
<path d="M0 0 C0.33 0.99 0.66 1.98 1 3 C-0.546875 5.69921875 -0.546875 5.69921875 -2.75 8.6875 C-3.82507813 10.17830078 -3.82507813 10.17830078 -4.921875 11.69921875 C-5.95054687 12.83810547 -5.95054687 12.83810547 -7 14 C-7.99 14 -8.98 14 -10 14 C-8.54440716 10.94185543 -6.86747996 8.13706343 -5 5.3125 C-4.484375 4.52488281 -3.96875 3.73726563 -3.4375 2.92578125 C-2 1 -2 1 0 0 Z " fill="#670E97" transform="translate(242,257)"/>
<path d="M0 0 C0.66 0 1.32 0 2 0 C0.70432862 3.88701415 -0.8637199 4.44755274 -4.3125 6.5625 C-5.27800781 7.16191406 -6.24351562 7.76132813 -7.23828125 8.37890625 C-9.46179787 9.6840822 -11.67504606 10.88998636 -14 12 C-13.39162811 8.95814054 -12.50402043 7.35862992 -9.96875 5.5546875 C-3.7125 2 -3.7125 2 0 2 C0 1.34 0 0.68 0 0 Z " fill="#440E90" transform="translate(324,144)"/>
<path d="M0 0 C0.66 0.66 1.32 1.32 2 2 C0.90902202 3.84121215 -0.19819251 5.67281256 -1.3125 7.5 C-2.23482422 9.03140625 -2.23482422 9.03140625 -3.17578125 10.59375 C-3.77777344 11.3878125 -4.37976563 12.181875 -5 13 C-5.99 13 -6.98 13 -8 13 C-4 2 -4 2 0 0 Z " fill="#9B09B8" transform="translate(249,245)"/>
<path d="M0 0 C0.66 0.33 1.32 0.66 2 1 C3.08179761 4.776086 3.10543987 8.40497142 3.0625 12.3125 C3.05347656 13.38113281 3.04445313 14.44976562 3.03515625 15.55078125 C3.02355469 16.35902344 3.01195312 17.16726562 3 18 C1.03470991 14.54792524 0.2253523 11.11523774 -0.625 7.25 C-0.88539063 6.07953125 -1.14578125 4.9090625 -1.4140625 3.703125 C-1.60742188 2.81109375 -1.80078125 1.9190625 -2 1 C-1.34 0.67 -0.68 0.34 0 0 Z " fill="#B104B0" transform="translate(437,216)"/>
<path d="M0 0 C4.27920002 0.65153233 7.83050821 2.12406997 11.75 3.9375 C12.89984375 4.46214844 14.0496875 4.98679688 15.234375 5.52734375 C18 7 18 7 19 9 C12.04634211 7.21440518 6.12685097 4.7441867 0 1 C0 0.67 0 0.34 0 0 Z " fill="#F56CEC" transform="translate(345,229)"/>
<path d="M0 0 C-6.56098608 2.7758018 -12.95992045 4.0026554 -20 5 C-20 4.34 -20 3.68 -20 3 C-17.41932437 2.30081695 -14.83627153 1.61538951 -12.25 0.9375 C-11.15558594 0.63875977 -11.15558594 0.63875977 -10.0390625 0.33398438 C-6.28968956 -0.63744407 -3.69725762 -1.15449387 0 0 Z " fill="#8478F1" transform="translate(154,140)"/>
<path d="M0 0 C2.75361142 2.75361142 3.47414027 5.99845364 4.625 9.625 C4.96917969 10.68460937 4.96917969 10.68460937 5.3203125 11.765625 C5.88562421 13.50866945 6.44352544 15.25411416 7 17 C6.34 17 5.68 17 5 17 C4.67 17.66 4.34 18.32 4 19 C3.32900016 16.39688008 2.66304662 13.79264602 2 11.1875 C1.80921875 10.44951172 1.6184375 9.71152344 1.421875 8.95117188 C0.64737086 5.89464659 0 3.16626522 0 0 Z " fill="#2B16DD" transform="translate(70,253)"/>
<path d="M0 0 C-0.33 0.99 -0.66 1.98 -1 3 C-3.45449103 4.07772585 -5.77041698 4.94623568 -8.3125 5.75 C-9.32860352 6.09998047 -9.32860352 6.09998047 -10.36523438 6.45703125 C-14.01837981 7.64974931 -16.3459509 8.14538159 -20 7 C-18.86820313 6.57847656 -17.73640625 6.15695312 -16.5703125 5.72265625 C-15.08852006 5.16932869 -13.60675041 4.61594011 -12.125 4.0625 C-11.37863281 3.78470703 -10.63226563 3.50691406 -9.86328125 3.22070312 C-1.24887048 0 -1.24887048 0 0 0 Z " fill="#7879F3" transform="translate(220,305)"/>
<path d="M0 0 C0.66 0.33 1.32 0.66 2 1 C1.0980639 2.48819457 0.17785871 3.96532813 -0.75 5.4375 C-1.26046875 6.26121094 -1.7709375 7.08492188 -2.296875 7.93359375 C-4.1792182 10.21744593 -5.1157546 10.65514457 -8 11 C-6.60366572 6.55711819 -4.39598172 4.13475236 -1 1 C-0.67 0.67 -0.34 0.34 0 0 Z " fill="#9B0CE0" transform="translate(239,257)"/>
<path d="M0 0 C4.62 0.99 9.24 1.98 14 3 C14 3.33 14 3.66 14 4 C7.2314676 4.10152799 0.69675136 4.03026944 -6 3 C-6 2.67 -6 2.34 -6 2 C-4.02 1.67 -2.04 1.34 0 1 C0 0.67 0 0.34 0 0 Z " fill="#210DC6" transform="translate(158,311)"/>
<path d="M0 0 C0.66 0.33 1.32 0.66 2 1 C-2.62 5.62 -7.24 10.24 -12 15 C-12 12 -12 12 -9.9375 9.75 C-8.96003453 8.83151952 -7.98063409 7.91509667 -7 7 C-5.72522205 5.73312357 -4.45446477 4.46219016 -3.1875 3.1875 C-2.125 2.125 -1.0625 1.0625 0 0 Z " fill="#DC0FE4" transform="translate(323,166)"/>
<path d="M0 0 C0.66 0.66 1.32 1.32 2 2 C-4.27 2 -10.54 2 -17 2 C-17 1.67 -17 1.34 -17 1 C-14.91835982 0.63601378 -12.83459438 0.28416713 -10.75 -0.0625 C-9.00976562 -0.35833984 -9.00976562 -0.35833984 -7.234375 -0.66015625 C-4.3492649 -0.96330188 -2.65432578 -1.06538305 0 0 Z " fill="#1A1FE9" transform="translate(193,312)"/>
<path d="M0 0 C1.32 0.33 2.64 0.66 4 1 C5.52164099 3.89111788 6 5.71823412 6 9 C5.34 9 4.68 9 4 9 C3.67 9.66 3.34 10.32 3 11 C2.01 7.37 1.02 3.74 0 0 Z " fill="#F95DE9" transform="translate(404,194)"/>
<path d="M0 0 C3.29680965 0.65784963 5.84117922 1.89420573 8.75 3.5625 C9.94882812 4.24505859 9.94882812 4.24505859 11.171875 4.94140625 C11.77515625 5.29074219 12.3784375 5.64007813 13 6 C12.67 6.66 12.34 7.32 12 8 C7.44328408 6.48109469 3.68276708 4.04597738 0 1 C0 0.67 0 0.34 0 0 Z " fill="#EE06DF" transform="translate(338,241)"/>
<path d="M0 0 C0.66 0.33 1.32 0.66 2 1 C2 1.66 2 2.32 2 3 C-2.95 5.475 -2.95 5.475 -8 8 C-6 3 -6 3 -3 1.125 C-2.01 0.75375 -1.02 0.3825 0 0 Z " fill="#4A0FE3" transform="translate(149,188)"/>
<path d="M0 0 C1.60495567 0.11442461 3.20898119 0.24194694 4.8125 0.375 C5.70582031 0.44460938 6.59914063 0.51421875 7.51953125 0.5859375 C10 1 10 1 13 3 C12.67 3.33 12.34 3.66 12 4 C6.81996929 3.66032586 4.04745599 3.3834913 0 0 Z " fill="#2419D9" transform="translate(345,283)"/>
<path d="M0 0 C0.33 0.66 0.66 1.32 1 2 C-0.14453125 4.56640625 -0.14453125 4.56640625 -1.8125 7.5625 C-2.35519531 8.55378906 -2.89789063 9.54507812 -3.45703125 10.56640625 C-5 13 -5 13 -7 14 C-6.44010697 10.00987629 -5.24330232 7.4744948 -2.9375 4.1875 C-2.38964844 3.39730469 -1.84179688 2.60710937 -1.27734375 1.79296875 C-0.64505859 0.90544922 -0.64505859 0.90544922 0 0 Z " fill="#9163F0" transform="translate(270,254)"/>
<path d="M0 0 C0.33 0.99 0.66 1.98 1 3 C-2.63 5.97 -6.26 8.94 -10 12 C-10.66 11.67 -11.32 11.34 -12 11 C-8.04 7.37 -4.08 3.74 0 0 Z " fill="#5915DB" transform="translate(221,279)"/>
<path d="M0 0 C0.66 0.99 1.32 1.98 2 3 C0.02 5.97 0.02 5.97 -2 9 C-2.66 8.67 -3.32 8.34 -4 8 C-2.25 2.25 -2.25 2.25 0 0 Z " fill="#B308C4" transform="translate(253,237)"/>
<path d="M0 0 C0.66 0.33 1.32 0.66 2 1 C2 1.66 2 2.32 2 3 C0.03125 4.5078125 0.03125 4.5078125 -2.5 6.125 C-3.3353125 6.66382813 -4.170625 7.20265625 -5.03125 7.7578125 C-5.6809375 8.16773438 -6.330625 8.57765625 -7 9 C-7.66 8.67 -8.32 8.34 -9 8 C-6.03 5.36 -3.06 2.72 0 0 Z " fill="#1E1089" transform="translate(140,196)"/>
<path d="M0 0 C1.41875765 0.76697796 2.83491452 1.53876778 4.25 2.3125 C5.03890625 2.74175781 5.8278125 3.17101562 6.640625 3.61328125 C8.89727134 4.9396214 10.93998597 6.38884224 13 8 C7.64147506 7.60791281 3.85831875 5.6642613 0 2 C0 1.34 0 0.68 0 0 Z " fill="#F046E7" transform="translate(333,221)"/>
<path d="M0 0 C1.32 0.33 2.64 0.66 4 1 C2.63875 2.11375 2.63875 2.11375 1.25 3.25 C-1.3069423 5.37674584 -3.69110193 7.60229816 -6 10 C-4.6302836 6.00499382 -2.74277578 3.19990508 0 0 Z " fill="#1B21C9" transform="translate(128,205)"/>
<path d="M0 0 C1.12894876 0.93274109 2.25300876 1.87140122 3.375 2.8125 C4.00148438 3.33457031 4.62796875 3.85664063 5.2734375 4.39453125 C7 6 7 6 9 9 C5.05860922 7.33248852 2.2107188 4.77289351 -1 2 C-0.67 1.34 -0.34 0.68 0 0 Z " fill="#BB04DE" transform="translate(262,173)"/>
<path d="M0 0 C0.66 0.33 1.32 0.66 2 1 C-2 7.57142857 -2 7.57142857 -6 9 C-4.47291037 5.56404834 -2.40072955 2.88087546 0 0 Z " fill="#2410E6" transform="translate(297,159)"/>
<path d="M0 0 C0.66 0.66 1.32 1.32 2 2 C-0.31 3.65 -2.62 5.3 -5 7 C-5.33 6.34 -5.66 5.68 -6 5 C-2.25 1.125 -2.25 1.125 0 0 Z " fill="#A00BC3" transform="translate(417,280)"/>
<path d="M0 0 C0.66 0 1.32 0 2 0 C0.5140084 4.59306496 -1.85014682 7.43569245 -5 11 C-5.33 10.34 -5.66 9.68 -6 9 C-5.05016642 7.49460339 -4.08988109 5.99579653 -3.125 4.5 C-2.59132813 3.6646875 -2.05765625 2.829375 -1.5078125 1.96875 C-0.76144531 0.99421875 -0.76144531 0.99421875 0 0 Z " fill="#1923EA" transform="translate(77,174)"/>
<path d="M0 0 C0.66 0.33 1.32 0.66 2 1 C0.1875 4 0.1875 4 -2 7 C-2.99 7 -3.98 7 -5 7 C-3.75023244 3.34683329 -3.32901247 2.21934164 0 0 Z " fill="#8410AD" transform="translate(246,251)"/>
<path d="M0 0 C0.66 0.33 1.32 0.66 2 1 C2 1.66 2 2.32 2 3 C-1.73487777 2.5020163 -3.81237635 2.12508244 -7 0 C-4.30919898 -1.34540051 -2.86443593 -0.71610898 0 0 Z " fill="#9F11E4" transform="translate(238,139)"/>
<path d="M0 0 C0.99 0 1.98 0 3 0 C1.4169423 4.2742558 -1.50568404 6.26531794 -5 9 C-3.49901406 5.88256767 -1.97568178 2.84498177 0 0 Z " fill="#BC6CF0" transform="translate(249,283)"/>
<path d="M0 0 C0.99 0.33 1.98 0.66 3 1 C2.67 1.99 2.34 2.98 2 4 C0.35 4.33 -1.3 4.66 -3 5 C-2.625 3.0625 -2.625 3.0625 -2 1 C-1.34 0.67 -0.68 0.34 0 0 Z " fill="#A709DB" transform="translate(407,282)"/>
<path d="M0 0 C0.33 0.99 0.66 1.98 1 3 C-0.32 4.32 -1.64 5.64 -3 7 C-3.99 6.67 -4.98 6.34 -6 6 C-4.02 4.02 -2.04 2.04 0 0 Z " fill="#3B1A7B" transform="translate(228,276)"/>
<path d="M0 0 C3.4375 0.8125 3.4375 0.8125 7 2 C7.33 2.99 7.66 3.98 8 5 C4.5625 4.1875 4.5625 4.1875 1 3 C0.67 2.01 0.34 1.02 0 0 Z " fill="#BD08D0" transform="translate(196,190)"/>
<path d="M0 0 C0.66 0.33 1.32 0.66 2 1 C0.12050295 4.57104439 -1.17053157 6.54744301 -5 8 C-3.62845496 5.04590299 -2.01136276 2.55991624 0 0 Z " fill="#311083" transform="translate(309,153)"/>
<path d="M0 0 C0.66 0 1.32 0 2 0 C1 3 1 3 -2.0625 4.6875 C-3.031875 5.120625 -4.00125 5.55375 -5 6 C-5.66 5.34 -6.32 4.68 -7 4 C-4.35261084 2.5393715 -3.10551666 2 0 2 C0 1.34 0 0.68 0 0 Z " fill="#600DA3" transform="translate(324,144)"/>
<path d="M0 0 C-2.64 1.65 -5.28 3.3 -8 5 C-7 1 -7 1 -5.125 -0.3125 C-3 -1 -3 -1 0 0 Z " fill="#8442ED" transform="translate(114,153)"/>
</svg>
